# xmcd CD database file
#
# Track frame offsets:
#	225
#	17461
#	37497
#	56242
#	70348
#	82815
#	97020
#	113414
#	129391
#	147400
#	161164
#	172434
#	188785
#	204313
#	222244
#	243971
#
# Disc length: 3410 seconds
#
# Revision: 1
# Processed by: cddbd v1.4PL0 Copyright (c) Steve Scherf et al.
# Submitted via: CDex 1.50beta9
#
DISCID=ec0d4f10
DTITLE=Verschiedene Künstler - Deutsche Trucker Songs Folge 1
DYEAR=1900
DGENRE=Trucker
TTITLE0=Sie ist ein ehrbares Maedchen
TTITLE1=Lieder der Strasse
TTITLE2=Nimm meine Hand
TTITLE3=Ein Duft von Heu
TTITLE4=Steppenreiter
TTITLE5=Ich war noch nie in Kansas City
TTITLE6=Country Music in Texas
TTITLE7=zu einer Lady biegst du auch mich nicht hin
TTITLE8=German Trucker
TTITLE9=Tausche Ufo gegen 30-Tonner Diesel
TTITLE10=Fingertips
TTITLE11=Truck Durch Suedtirol
TTITLE12=und in Hamburg sitzt Gaby
TTITLE13=Intercity Linie Nr. 4
TTITLE14=Ruf Teddybaer 1-4
TTITLE15=Bring mich heim, Autobahn
EXTD=
EXTT0=
EXTT1=
EXTT2=
EXTT3=
EXTT4=
EXTT5=
EXTT6=
EXTT7=
EXTT8=
EXTT9=
EXTT10=
EXTT11=
EXTT12=
EXTT13=
EXTT14=
EXTT15=
PLAYORDER=
